<svg xmlns="http://www.w3.org/2000/svg" width="26" height="26" id="animation"><g fill="#fff" transform="translate(5 -1031.362)"><circle cx="657.054" cy="437.094" r="15.268" fill="#ef4c45" fill-rule="evenodd" transform="translate(-551.456 672.193) scale(.85146)"></circle><path fill="#df2209" style="line-height:normal;text-indent:0;text-align:start;text-decoration-line:none;text-decoration-style:solid;text-decoration-color:#000;text-transform:none;block-progression:tb;isolation:auto;mix-blend-mode:normal" d="M11.424 25.893a13 13 0 0 0 .28.043A13 13 0 0 0 13 26a13 13 0 0 0 .92-.033 13 13 0 0 0 1.289-.156 13 13 0 0 0 1.268-.286 13 13 0 0 0 1.234-.408 13 13 0 0 0 1.185-.531 13 13 0 0 0 1.127-.647 13 13 0 0 0 1.057-.755 13 13 0 0 0 .977-.858 13 13 0 0 0 .886-.951 13 13 0 0 0 .786-1.035 13 13 0 0 0 .68-1.108 13 13 0 0 0 .566-1.17 13 13 0 0 0 .445-1.22 13 13 0 0 0 .32-1.26 13 13 0 0 0 .196-1.285A13 13 0 0 0 26 13a13 13 0 0 0-.033-.92 13 13 0 0 0-.09-.734L21 6.469H5v13l6.424 6.424z" color="#000" font-family="sans-serif" font-weight="400" transform="translate(-5 1031.362)"></path><path style="line-height:normal;text-indent:0;text-align:start;text-decoration-line:none;text-decoration-style:solid;text-decoration-color:#000;text-transform:none;block-progression:tb;isolation:auto;mix-blend-mode:normal" d="M0 2v13h16V2H0Zm1 1h14v7H1V3zm5.002 1.154v4.74l.748-.435 3.32-1.936-4.068-2.369Zm.996 1.74 1.08.631-1.08.63v-1.26zM1 11h14v1.004H4v-.5H3v.5H1V11Zm0 2.004h2v.5h1v-.5h11V14H1v-.996Z" color="#000" font-family="sans-serif" font-weight="400" overflow="visible" transform="translate(0 1035.831)"></path></g></svg>